<svg width="26" height="28" viewBox="0 0 26 28" fill="none" xmlns="http://www.w3.org/2000/svg">
<g clip-path="url(#clip0)">
<path d="M1.76596 5.7001C3.52671 3.53069 5.93348 1.97931 8.63638 1.27157C11.3393 0.563831 14.1975 0.736578 16.7955 1.76468C19.3935 2.79277 21.5959 4.62264 23.0826 6.98831C24.5692 9.35398 25.2627 12.1321 25.0621 14.919C24.8616 17.7058 23.7775 20.3561 21.9674 22.4845C20.1573 24.6129 17.7155 26.1085 14.9971 26.754C12.2786 27.3995 9.42517 27.1612 6.85146 26.0737C4.27774 24.9862 2.11794 23.1062 0.685974 20.7071" stroke="white" stroke-miterlimit="10" stroke-linecap="round"/>
<path d="M1.68597 0.508057L1.76697 5.70111L5.92897 6.26709" stroke="white" stroke-linecap="round" stroke-linejoin="round"/>
<path d="M9.5376 18.7871H8.23779V12.5083L6.32031 13.1636V12.0625L9.37109 10.9399H9.5376V18.7871ZM12.6045 14.9092L13.0288 10.9668H17.229V12.0947H14.1138L13.8989 13.9639C14.2606 13.7562 14.6688 13.6523 15.1235 13.6523C15.8683 13.6523 16.4466 13.8905 16.8584 14.3667C17.2738 14.8429 17.4814 15.4839 17.4814 16.2896C17.4814 17.0845 17.2523 17.7183 16.7939 18.1909C16.3356 18.66 15.7072 18.8945 14.9087 18.8945C14.1925 18.8945 13.5981 18.6922 13.1255 18.2876C12.6564 17.8794 12.4022 17.3423 12.3628 16.6763H13.625C13.6751 17.0558 13.8112 17.3477 14.0332 17.5518C14.2552 17.7523 14.5452 17.8525 14.9033 17.8525C15.3044 17.8525 15.6159 17.7093 15.8379 17.4229C16.0635 17.1364 16.1763 16.7461 16.1763 16.252C16.1763 15.7757 16.0527 15.3997 15.8057 15.124C15.5586 14.8447 15.2184 14.7051 14.7852 14.7051C14.5488 14.7051 14.3483 14.7373 14.1836 14.8018C14.0189 14.8626 13.8398 14.9844 13.6465 15.167L12.6045 14.9092Z" fill="white"/>
</g>
<defs>
<clipPath id="clip0">
<rect width="25.598" height="27.609" fill="white"/>
</clipPath>
</defs>
</svg>
