<svg width="26" height="28" viewBox="0 0 26 28" fill="none" xmlns="http://www.w3.org/2000/svg">
<g clip-path="url(#clip0)">
<path d="M23.832 5.6989C22.0712 3.5296 19.6644 1.97839 16.9615 1.27074C14.2587 0.563096 11.4005 0.735902 8.80259 1.76403C6.20465 2.79215 4.00231 4.62203 2.51568 6.98766C1.02904 9.3533 0.335601 12.1314 0.536141 14.9181C0.736682 17.7049 1.82076 20.3551 3.63079 22.4835C5.44083 24.6119 7.88248 26.1076 10.6009 26.7532C13.3192 27.3987 16.1727 27.1605 18.7464 26.0731C21.3201 24.9858 23.4799 23.106 24.912 20.7069" stroke="white" stroke-miterlimit="10" stroke-linecap="round"/>
<path d="M23.912 0.506836L23.831 5.69989L19.669 6.26587" stroke="white" stroke-linecap="round" stroke-linejoin="round"/>
<path d="M11.3516 18.7859H10.0518V12.5071L8.13434 13.1624V12.0613L11.1851 10.9387H11.3516V18.7859ZM14.4185 14.908L14.8428 10.9656H19.043V12.0935H15.9278L15.713 13.9626C16.0746 13.755 16.4828 13.6511 16.9376 13.6511C17.6824 13.6511 18.2606 13.8892 18.6724 14.3655C19.0878 14.8417 19.2955 15.4827 19.2955 16.2883C19.2955 17.0833 19.0663 17.717 18.608 18.1897C18.1496 18.6588 17.5212 18.8933 16.7227 18.8933C16.0066 18.8933 15.4122 18.691 14.9395 18.2864C14.4704 17.8782 14.2162 17.3411 14.1768 16.675H15.439C15.4892 17.0546 15.6252 17.3464 15.8472 17.5505C16.0692 17.7511 16.3593 17.8513 16.7173 17.8513C17.1184 17.8513 17.4299 17.7081 17.6519 17.4216C17.8775 17.1352 17.9903 16.7449 17.9903 16.2507C17.9903 15.7745 17.8668 15.3985 17.6197 15.1228C17.3726 14.8435 17.0325 14.7039 16.5992 14.7039C16.3629 14.7039 16.1623 14.7361 15.9976 14.8005C15.8329 14.8614 15.6539 14.9832 15.4605 15.1658L14.4185 14.908Z" fill="white"/>
</g>
<defs>
<clipPath id="clip0">
<rect width="25.598" height="27.609" fill="white"/>
</clipPath>
</defs>
</svg>
